<?xml version="1.0" encoding="utf-8" standalone="no"?>
<!DOCTYPE svg PUBLIC "-//W3C//DTD SVG 1.1//EN"
  "http://www.w3.org/Graphics/SVG/1.1/DTD/svg11.dtd">
<svg xmlns:xlink="http://www.w3.org/1999/xlink" width="508.461094pt" height="342.476719pt" viewBox="0 0 508.461094 342.476719" xmlns="http://www.w3.org/2000/svg" version="1.1">
 <metadata>
  <rdf:RDF xmlns:dc="http://purl.org/dc/elements/1.1/" xmlns:cc="http://creativecommons.org/ns#" xmlns:rdf="http://www.w3.org/1999/02/22-rdf-syntax-ns#">
   <cc:Work>
    <dc:type rdf:resource="http://purl.org/dc/dcmitype/StillImage"/>
    <dc:date>2026-08-14T19:22:45.570641</dc:date>
    <dc:format>image/svg+xml</dc:format>
    <dc:creator>
     <cc:Agent>
      <dc:title>Matplotlib v3.9.2, https://matplotlib.org/</dc:title>
     </cc:Agent>
    </dc:creator>
   </cc:Work>
  </rdf:RDF>
 </metadata>
 <defs>
  <style type="text/css">*{stroke-linejoin: round; stroke-linecap: butt}</style>
 </defs>
 <g id="figure_1">
  <g id="patch_1">
   <path d="M 0 342.476719 
L 508.461094 342.476719 
L 508.461094 0 
L 0 0 
z
" style="fill: #ffffff"/>
  </g>
  <g id="axes_1">
   <g id="patch_2">
    <path d="M 61.451094 299.442813 
L 495.501094 299.442813 
L 495.501094 33.892812 
L 61.451094 33.892812 
z
" style="fill: #ffffff"/>
   </g>
   <g id="matplotlib.axis_1">
    <g id="xtick_1">
     <g id="line2d_1">
      <defs>
       <path id="ma74206af4c" d="M 0 0 
L 0 3.5 
" style="stroke: #000000; stroke-width: 0.8"/>
      </defs>
      <g>
       <use xlink:href="#ma74206af4c" x="114.971573" y="299.442813" style="stroke: #000000; stroke-width: 0.8"/>
      </g>
     </g>
     <g id="text_1">
      <text style="font: 10px 'Times New Roman', 'Times', 'DejaVu Serif', serif; text-anchor: middle" x="114.971573" y="313.386563" transform="rotate(-0 114.971573 313.386563)">TO</text>
     </g>
    </g>
    <g id="xtick_2">
     <g id="line2d_2">
      <g>
       <use xlink:href="#ma74206af4c" x="223.974587" y="299.442813" style="stroke: #000000; stroke-width: 0.8"/>
      </g>
     </g>
     <g id="text_2">
      <text style="font: 10px 'Times New Roman', 'Times', 'DejaVu Serif', serif; text-anchor: middle" x="223.974587" y="313.386563" transform="rotate(-0 223.974587 313.386563)">DS</text>
     </g>
    </g>
    <g id="xtick_3">
     <g id="line2d_3">
      <g>
       <use xlink:href="#ma74206af4c" x="332.977601" y="299.442813" style="stroke: #000000; stroke-width: 0.8"/>
      </g>
     </g>
     <g id="text_3">
      <text style="font: 10px 'Times New Roman', 'Times', 'DejaVu Serif', serif; text-anchor: middle" x="332.977601" y="313.386563" transform="rotate(-0 332.977601 313.386563)">MY</text>
     </g>
    </g>
    <g id="xtick_4">
     <g id="line2d_4">
      <g>
       <use xlink:href="#ma74206af4c" x="441.980614" y="299.442813" style="stroke: #000000; stroke-width: 0.8"/>
      </g>
     </g>
     <g id="text_4">
      <text style="font: 10px 'Times New Roman', 'Times', 'DejaVu Serif', serif; text-anchor: middle" x="441.980614" y="313.386563" transform="rotate(-0 441.980614 313.386563)">AZ</text>
     </g>
    </g>
    <g id="text_5">
     <text style="font: 11px 'Times New Roman', 'Times', 'DejaVu Serif', serif; text-anchor: middle" x="278.476094" y="327.16375" transform="rotate(-0 278.476094 327.16375)">Brand</text>
    </g>
   </g>
   <g id="matplotlib.axis_2">
    <g id="ytick_1">
     <g id="line2d_5">
      <path d="M 61.451094 299.442813 
L 495.501094 299.442813 
" clip-path="url(#p32261a1798)" style="fill: none; stroke: #e5e7eb; stroke-width: 0.8; stroke-linecap: square"/>
     </g>
     <g id="line2d_6">
      <defs>
       <path id="m9a11aca9d6" d="M 0 0 
L -3.5 0 
" style="stroke: #000000; stroke-width: 0.8"/>
      </defs>
      <g>
       <use xlink:href="#m9a11aca9d6" x="61.451094" y="299.442813" style="stroke: #000000; stroke-width: 0.8"/>
      </g>
     </g>
     <g id="text_6">
      <text style="font: 10px 'Times New Roman', 'Times', 'DejaVu Serif', serif; text-anchor: end" x="54.451094" y="302.914688" transform="rotate(-0 54.451094 302.914688)">0</text>
     </g>
    </g>
    <g id="ytick_2">
     <g id="line2d_7">
      <path d="M 61.451094 265.528849 
L 495.501094 265.528849 
" clip-path="url(#p32261a1798)" style="fill: none; stroke: #e5e7eb; stroke-width: 0.8; stroke-linecap: square"/>
     </g>
     <g id="line2d_8">
      <g>
       <use xlink:href="#m9a11aca9d6" x="61.451094" y="265.528849" style="stroke: #000000; stroke-width: 0.8"/>
      </g>
     </g>
     <g id="text_7">
      <text style="font: 10px 'Times New Roman', 'Times', 'DejaVu Serif', serif; text-anchor: end" x="54.451094" y="269.000724" transform="rotate(-0 54.451094 269.000724)">2.500</text>
     </g>
    </g>
    <g id="ytick_3">
     <g id="line2d_9">
      <path d="M 61.451094 231.614885 
L 495.501094 231.614885 
" clip-path="url(#p32261a1798)" style="fill: none; stroke: #e5e7eb; stroke-width: 0.8; stroke-linecap: square"/>
     </g>
     <g id="line2d_10">
      <g>
       <use xlink:href="#m9a11aca9d6" x="61.451094" y="231.614885" style="stroke: #000000; stroke-width: 0.8"/>
      </g>
     </g>
     <g id="text_8">
      <text style="font: 10px 'Times New Roman', 'Times', 'DejaVu Serif', serif; text-anchor: end" x="54.451094" y="235.08676" transform="rotate(-0 54.451094 235.08676)">5.000</text>
     </g>
    </g>
    <g id="ytick_4">
     <g id="line2d_11">
      <path d="M 61.451094 197.700921 
L 495.501094 197.700921 
" clip-path="url(#p32261a1798)" style="fill: none; stroke: #e5e7eb; stroke-width: 0.8; stroke-linecap: square"/>
     </g>
     <g id="line2d_12">
      <g>
       <use xlink:href="#m9a11aca9d6" x="61.451094" y="197.700921" style="stroke: #000000; stroke-width: 0.8"/>
      </g>
     </g>
     <g id="text_9">
      <text style="font: 10px 'Times New Roman', 'Times', 'DejaVu Serif', serif; text-anchor: end" x="54.451094" y="201.172796" transform="rotate(-0 54.451094 201.172796)">7.500</text>
     </g>
    </g>
    <g id="ytick_5">
     <g id="line2d_13">
      <path d="M 61.451094 163.786957 
L 495.501094 163.786957 
" clip-path="url(#p32261a1798)" style="fill: none; stroke: #e5e7eb; stroke-width: 0.8; stroke-linecap: square"/>
     </g>
     <g id="line2d_14">
      <g>
       <use xlink:href="#m9a11aca9d6" x="61.451094" y="163.786957" style="stroke: #000000; stroke-width: 0.8"/>
      </g>
     </g>
     <g id="text_10">
      <text style="font: 10px 'Times New Roman', 'Times', 'DejaVu Serif', serif; text-anchor: end" x="54.451094" y="167.258832" transform="rotate(-0 54.451094 167.258832)">10.000</text>
     </g>
    </g>
    <g id="ytick_6">
     <g id="line2d_15">
      <path d="M 61.451094 129.872993 
L 495.501094 129.872993 
" clip-path="url(#p32261a1798)" style="fill: none; stroke: #e5e7eb; stroke-width: 0.8; stroke-linecap: square"/>
     </g>
     <g id="line2d_16">
      <g>
       <use xlink:href="#m9a11aca9d6" x="61.451094" y="129.872993" style="stroke: #000000; stroke-width: 0.8"/>
      </g>
     </g>
     <g id="text_11">
      <text style="font: 10px 'Times New Roman', 'Times', 'DejaVu Serif', serif; text-anchor: end" x="54.451094" y="133.344868" transform="rotate(-0 54.451094 133.344868)">12.500</text>
     </g>
    </g>
    <g id="ytick_7">
     <g id="line2d_17">
      <path d="M 61.451094 95.959029 
L 495.501094 95.959029 
" clip-path="url(#p32261a1798)" style="fill: none; stroke: #e5e7eb; stroke-width: 0.8; stroke-linecap: square"/>
     </g>
     <g id="line2d_18">
      <g>
       <use xlink:href="#m9a11aca9d6" x="61.451094" y="95.959029" style="stroke: #000000; stroke-width: 0.8"/>
      </g>
     </g>
     <g id="text_12">
      <text style="font: 10px 'Times New Roman', 'Times', 'DejaVu Serif', serif; text-anchor: end" x="54.451094" y="99.430904" transform="rotate(-0 54.451094 99.430904)">15.000</text>
     </g>
    </g>
    <g id="ytick_8">
     <g id="line2d_19">
      <path d="M 61.451094 62.045065 
L 495.501094 62.045065 
" clip-path="url(#p32261a1798)" style="fill: none; stroke: #e5e7eb; stroke-width: 0.8; stroke-linecap: square"/>
     </g>
     <g id="line2d_20">
      <g>
       <use xlink:href="#m9a11aca9d6" x="61.451094" y="62.045065" style="stroke: #000000; stroke-width: 0.8"/>
      </g>
     </g>
     <g id="text_13">
      <text style="font: 10px 'Times New Roman', 'Times', 'DejaVu Serif', serif; text-anchor: end" x="54.451094" y="65.51694" transform="rotate(-0 54.451094 65.51694)">17.500</text>
     </g>
    </g>
    <g id="text_14">
     <text style="font: 11px 'Times New Roman', 'Times', 'DejaVu Serif', serif; text-anchor: middle" x="20.598125" y="166.667813" transform="rotate(-90 20.598125 166.667813)">Jumlah komentar</text>
    </g>
   </g>
   <g id="patch_3">
    <path d="M 81.180639 299.442813 
L 148.762508 299.442813 
L 148.762508 237.814357 
L 81.180639 237.814357 
z
" clip-path="url(#p32261a1798)" style="fill: #2e7d78"/>
   </g>
   <g id="patch_4">
    <path d="M 190.183653 299.442813 
L 257.765521 299.442813 
L 257.765521 141.118863 
L 190.183653 141.118863 
z
" clip-path="url(#p32261a1798)" style="fill: #b46a3a"/>
   </g>
   <g id="patch_5">
    <path d="M 299.186666 299.442813 
L 366.768535 299.442813 
L 366.768535 72.477001 
L 299.186666 72.477001 
z
" clip-path="url(#p32261a1798)" style="fill: #b63f6a"/>
   </g>
   <g id="patch_6">
    <path d="M 408.18968 299.442813 
L 475.771548 299.442813 
L 475.771548 267.034629 
L 408.18968 267.034629 
z
" clip-path="url(#p32261a1798)" style="fill: #3a66b7"/>
   </g>
   <g id="patch_7">
    <path d="M 61.451094 299.442813 
L 61.451094 33.892812 
" style="fill: none; stroke: #6b7280; stroke-width: 0.8; stroke-linejoin: miter; stroke-linecap: square"/>
   </g>
   <g id="patch_8">
    <path d="M 61.451094 299.442813 
L 495.501094 299.442813 
" style="fill: none; stroke: #6b7280; stroke-width: 0.8; stroke-linejoin: miter; stroke-linecap: square"/>
   </g>
   <g id="text_15">
    <g id="patch_9">
     <path d="M 104.846573 233.760212 
L 125.096573 233.760212 
Q 126.716573 233.760212 126.716573 232.140212 
L 126.716573 223.965681 
Q 126.716573 222.345681 125.096573 222.345681 
L 104.846573 222.345681 
Q 103.226573 222.345681 103.226573 223.965681 
L 103.226573 232.140212 
Q 103.226573 233.760212 104.846573 233.760212 
z
" style="fill: #ffffff; opacity: 0.85"/>
    </g>
    <text style="font: 9px 'Times New Roman', 'Times', 'DejaVu Serif', serif; text-anchor: middle" x="114.971573" y="230.215056" transform="rotate(-0 114.971573 230.215056)">4.543</text>
   </g>
   <g id="text_16">
    <g id="patch_10">
     <path d="M 211.768337 137.064718 
L 236.180837 137.064718 
Q 237.800837 137.064718 237.800837 135.444718 
L 237.800837 127.270187 
Q 237.800837 125.650187 236.180837 125.650187 
L 211.768337 125.650187 
Q 210.148337 125.650187 210.148337 127.270187 
L 210.148337 135.444718 
Q 210.148337 137.064718 211.768337 137.064718 
z
" style="fill: #ffffff; opacity: 0.85"/>
    </g>
    <text style="font: 9px 'Times New Roman', 'Times', 'DejaVu Serif', serif; text-anchor: middle" x="223.974587" y="133.519562" transform="rotate(-0 223.974587 133.519562)">11.671</text>
   </g>
   <g id="text_17">
    <g id="patch_11">
     <path d="M 320.602601 68.422855 
L 345.352601 68.422855 
Q 346.972601 68.422855 346.972601 66.802855 
L 346.972601 58.628324 
Q 346.972601 57.008324 345.352601 57.008324 
L 320.602601 57.008324 
Q 318.982601 57.008324 318.982601 58.628324 
L 318.982601 66.802855 
Q 318.982601 68.422855 320.602601 68.422855 
z
" style="fill: #ffffff; opacity: 0.85"/>
    </g>
    <text style="font: 9px 'Times New Roman', 'Times', 'DejaVu Serif', serif; text-anchor: middle" x="332.977601" y="64.877699" transform="rotate(-0 332.977601 64.877699)">16.731</text>
   </g>
   <g id="text_18">
    <g id="patch_12">
     <path d="M 431.855614 262.980483 
L 452.105614 262.980483 
Q 453.725614 262.980483 453.725614 261.360483 
L 453.725614 253.185952 
Q 453.725614 251.565952 452.105614 251.565952 
L 431.855614 251.565952 
Q 430.235614 251.565952 430.235614 253.185952 
L 430.235614 261.360483 
Q 430.235614 262.980483 431.855614 262.980483 
z
" style="fill: #ffffff; opacity: 0.85"/>
    </g>
    <text style="font: 9px 'Times New Roman', 'Times', 'DejaVu Serif', serif; text-anchor: middle" x="441.980614" y="259.435327" transform="rotate(-0 441.980614 259.435327)">2.389</text>
   </g>
   <g id="text_19">
    <text style="font: 700 15px 'Times New Roman', 'Times', 'DejaVu Serif', serif; text-anchor: middle" x="278.476094" y="22.892813" transform="rotate(-0 278.476094 22.892813)">Jumlah Komentar per Brand</text>
   </g>
  </g>
 </g>
 <defs>
  <clipPath id="p32261a1798">
   <rect x="61.451094" y="33.892813" width="434.05" height="265.55"/>
  </clipPath>
 </defs>
</svg>
