<?xml version="1.0" encoding="utf-8" standalone="no"?>
<!DOCTYPE svg PUBLIC "-//W3C//DTD SVG 1.1//EN"
  "http://www.w3.org/Graphics/SVG/1.1/DTD/svg11.dtd">
<svg xmlns:xlink="http://www.w3.org/1999/xlink" width="508.517344pt" height="342.486094pt" viewBox="0 0 508.517344 342.486094" xmlns="http://www.w3.org/2000/svg" version="1.1">
 <metadata>
  <rdf:RDF xmlns:dc="http://purl.org/dc/elements/1.1/" xmlns:cc="http://creativecommons.org/ns#" xmlns:rdf="http://www.w3.org/1999/02/22-rdf-syntax-ns#">
   <cc:Work>
    <dc:type rdf:resource="http://purl.org/dc/dcmitype/StillImage"/>
    <dc:date>2026-08-14T19:22:46.491477</dc:date>
    <dc:format>image/svg+xml</dc:format>
    <dc:creator>
     <cc:Agent>
      <dc:title>Matplotlib v3.9.2, https://matplotlib.org/</dc:title>
     </cc:Agent>
    </dc:creator>
   </cc:Work>
  </rdf:RDF>
 </metadata>
 <defs>
  <style type="text/css">*{stroke-linejoin: round; stroke-linecap: butt}</style>
 </defs>
 <g id="figure_1">
  <g id="patch_1">
   <path d="M 0 342.486094 
L 508.517344 342.486094 
L 508.517344 0 
L 0 0 
z
" style="fill: #ffffff"/>
  </g>
  <g id="axes_1">
   <g id="patch_2">
    <path d="M 61.451094 299.452188 
L 495.557344 299.452188 
L 495.557344 34.127188 
L 61.451094 34.127188 
z
" style="fill: #ffffff"/>
   </g>
   <g id="matplotlib.axis_1">
    <g id="xtick_1">
     <g id="line2d_1">
      <defs>
       <path id="mef9bf2d4f2" d="M 0 0 
L 0 3.5 
" style="stroke: #000000; stroke-width: 0.8"/>
      </defs>
      <g>
       <use xlink:href="#mef9bf2d4f2" x="114.978509" y="299.452188" style="stroke: #000000; stroke-width: 0.8"/>
      </g>
     </g>
     <g id="text_1">
      <text style="font: 10px 'Times New Roman', 'Times', 'DejaVu Serif', serif; text-anchor: middle" x="114.978509" y="313.395938" transform="rotate(-0 114.978509 313.395938)">TO</text>
     </g>
    </g>
    <g id="xtick_2">
     <g id="line2d_2">
      <g>
       <use xlink:href="#mef9bf2d4f2" x="223.995649" y="299.452188" style="stroke: #000000; stroke-width: 0.8"/>
      </g>
     </g>
     <g id="text_2">
      <text style="font: 10px 'Times New Roman', 'Times', 'DejaVu Serif', serif; text-anchor: middle" x="223.995649" y="313.395938" transform="rotate(-0 223.995649 313.395938)">DS</text>
     </g>
    </g>
    <g id="xtick_3">
     <g id="line2d_3">
      <g>
       <use xlink:href="#mef9bf2d4f2" x="333.012789" y="299.452188" style="stroke: #000000; stroke-width: 0.8"/>
      </g>
     </g>
     <g id="text_3">
      <text style="font: 10px 'Times New Roman', 'Times', 'DejaVu Serif', serif; text-anchor: middle" x="333.012789" y="313.395938" transform="rotate(-0 333.012789 313.395938)">MY</text>
     </g>
    </g>
    <g id="xtick_4">
     <g id="line2d_4">
      <g>
       <use xlink:href="#mef9bf2d4f2" x="442.029928" y="299.452188" style="stroke: #000000; stroke-width: 0.8"/>
      </g>
     </g>
     <g id="text_4">
      <text style="font: 10px 'Times New Roman', 'Times', 'DejaVu Serif', serif; text-anchor: middle" x="442.029928" y="313.395938" transform="rotate(-0 442.029928 313.395938)">AZ</text>
     </g>
    </g>
    <g id="text_5">
     <text style="font: 11px 'Times New Roman', 'Times', 'DejaVu Serif', serif; text-anchor: middle" x="278.504219" y="327.173125" transform="rotate(-0 278.504219 327.173125)">Brand</text>
    </g>
   </g>
   <g id="matplotlib.axis_2">
    <g id="ytick_1">
     <g id="line2d_5">
      <path d="M 61.451094 299.452188 
L 495.557344 299.452188 
" clip-path="url(#pc29a0b6c60)" style="fill: none; stroke: #e5e7eb; stroke-width: 0.8; stroke-linecap: square"/>
     </g>
     <g id="line2d_6">
      <defs>
       <path id="m935c6b03d6" d="M 0 0 
L -3.5 0 
" style="stroke: #000000; stroke-width: 0.8"/>
      </defs>
      <g>
       <use xlink:href="#m935c6b03d6" x="61.451094" y="299.452188" style="stroke: #000000; stroke-width: 0.8"/>
      </g>
     </g>
     <g id="text_6">
      <text style="font: 10px 'Times New Roman', 'Times', 'DejaVu Serif', serif; text-anchor: end" x="54.451094" y="302.924063" transform="rotate(-0 54.451094 302.924063)">0</text>
     </g>
    </g>
    <g id="ytick_2">
     <g id="line2d_7">
      <path d="M 61.451094 267.693417 
L 495.557344 267.693417 
" clip-path="url(#pc29a0b6c60)" style="fill: none; stroke: #e5e7eb; stroke-width: 0.8; stroke-linecap: square"/>
     </g>
     <g id="line2d_8">
      <g>
       <use xlink:href="#m935c6b03d6" x="61.451094" y="267.693417" style="stroke: #000000; stroke-width: 0.8"/>
      </g>
     </g>
     <g id="text_7">
      <text style="font: 10px 'Times New Roman', 'Times', 'DejaVu Serif', serif; text-anchor: end" x="54.451094" y="271.165292" transform="rotate(-0 54.451094 271.165292)">2.000</text>
     </g>
    </g>
    <g id="ytick_3">
     <g id="line2d_9">
      <path d="M 61.451094 235.934646 
L 495.557344 235.934646 
" clip-path="url(#pc29a0b6c60)" style="fill: none; stroke: #e5e7eb; stroke-width: 0.8; stroke-linecap: square"/>
     </g>
     <g id="line2d_10">
      <g>
       <use xlink:href="#m935c6b03d6" x="61.451094" y="235.934646" style="stroke: #000000; stroke-width: 0.8"/>
      </g>
     </g>
     <g id="text_8">
      <text style="font: 10px 'Times New Roman', 'Times', 'DejaVu Serif', serif; text-anchor: end" x="54.451094" y="239.406521" transform="rotate(-0 54.451094 239.406521)">4.000</text>
     </g>
    </g>
    <g id="ytick_4">
     <g id="line2d_11">
      <path d="M 61.451094 204.175875 
L 495.557344 204.175875 
" clip-path="url(#pc29a0b6c60)" style="fill: none; stroke: #e5e7eb; stroke-width: 0.8; stroke-linecap: square"/>
     </g>
     <g id="line2d_12">
      <g>
       <use xlink:href="#m935c6b03d6" x="61.451094" y="204.175875" style="stroke: #000000; stroke-width: 0.8"/>
      </g>
     </g>
     <g id="text_9">
      <text style="font: 10px 'Times New Roman', 'Times', 'DejaVu Serif', serif; text-anchor: end" x="54.451094" y="207.64775" transform="rotate(-0 54.451094 207.64775)">6.000</text>
     </g>
    </g>
    <g id="ytick_5">
     <g id="line2d_13">
      <path d="M 61.451094 172.417104 
L 495.557344 172.417104 
" clip-path="url(#pc29a0b6c60)" style="fill: none; stroke: #e5e7eb; stroke-width: 0.8; stroke-linecap: square"/>
     </g>
     <g id="line2d_14">
      <g>
       <use xlink:href="#m935c6b03d6" x="61.451094" y="172.417104" style="stroke: #000000; stroke-width: 0.8"/>
      </g>
     </g>
     <g id="text_10">
      <text style="font: 10px 'Times New Roman', 'Times', 'DejaVu Serif', serif; text-anchor: end" x="54.451094" y="175.888979" transform="rotate(-0 54.451094 175.888979)">8.000</text>
     </g>
    </g>
    <g id="ytick_6">
     <g id="line2d_15">
      <path d="M 61.451094 140.658333 
L 495.557344 140.658333 
" clip-path="url(#pc29a0b6c60)" style="fill: none; stroke: #e5e7eb; stroke-width: 0.8; stroke-linecap: square"/>
     </g>
     <g id="line2d_16">
      <g>
       <use xlink:href="#m935c6b03d6" x="61.451094" y="140.658333" style="stroke: #000000; stroke-width: 0.8"/>
      </g>
     </g>
     <g id="text_11">
      <text style="font: 10px 'Times New Roman', 'Times', 'DejaVu Serif', serif; text-anchor: end" x="54.451094" y="144.130208" transform="rotate(-0 54.451094 144.130208)">10.000</text>
     </g>
    </g>
    <g id="ytick_7">
     <g id="line2d_17">
      <path d="M 61.451094 108.899562 
L 495.557344 108.899562 
" clip-path="url(#pc29a0b6c60)" style="fill: none; stroke: #e5e7eb; stroke-width: 0.8; stroke-linecap: square"/>
     </g>
     <g id="line2d_18">
      <g>
       <use xlink:href="#m935c6b03d6" x="61.451094" y="108.899562" style="stroke: #000000; stroke-width: 0.8"/>
      </g>
     </g>
     <g id="text_12">
      <text style="font: 10px 'Times New Roman', 'Times', 'DejaVu Serif', serif; text-anchor: end" x="54.451094" y="112.371437" transform="rotate(-0 54.451094 112.371437)">12.000</text>
     </g>
    </g>
    <g id="ytick_8">
     <g id="line2d_19">
      <path d="M 61.451094 77.140791 
L 495.557344 77.140791 
" clip-path="url(#pc29a0b6c60)" style="fill: none; stroke: #e5e7eb; stroke-width: 0.8; stroke-linecap: square"/>
     </g>
     <g id="line2d_20">
      <g>
       <use xlink:href="#m935c6b03d6" x="61.451094" y="77.140791" style="stroke: #000000; stroke-width: 0.8"/>
      </g>
     </g>
     <g id="text_13">
      <text style="font: 10px 'Times New Roman', 'Times', 'DejaVu Serif', serif; text-anchor: end" x="54.451094" y="80.612666" transform="rotate(-0 54.451094 80.612666)">14.000</text>
     </g>
    </g>
    <g id="ytick_9">
     <g id="line2d_21">
      <path d="M 61.451094 45.38202 
L 495.557344 45.38202 
" clip-path="url(#pc29a0b6c60)" style="fill: none; stroke: #e5e7eb; stroke-width: 0.8; stroke-linecap: square"/>
     </g>
     <g id="line2d_22">
      <g>
       <use xlink:href="#m935c6b03d6" x="61.451094" y="45.38202" style="stroke: #000000; stroke-width: 0.8"/>
      </g>
     </g>
     <g id="text_14">
      <text style="font: 10px 'Times New Roman', 'Times', 'DejaVu Serif', serif; text-anchor: end" x="54.451094" y="48.853895" transform="rotate(-0 54.451094 48.853895)">16.000</text>
     </g>
    </g>
    <g id="text_15">
     <text style="font: 11px 'Times New Roman', 'Times', 'DejaVu Serif', serif; text-anchor: middle" x="20.598125" y="166.789688" transform="rotate(-90 20.598125 166.789688)">Jumlah akun unik</text>
    </g>
   </g>
   <g id="patch_3">
    <path d="M 81.183196 299.452188 
L 148.773823 299.452188 
L 148.773823 250.241972 
L 81.183196 250.241972 
z
" clip-path="url(#pc29a0b6c60)" style="fill: #2e7d78"/>
   </g>
   <g id="patch_4">
    <path d="M 190.200336 299.452188 
L 257.790962 299.452188 
L 257.790962 144.453506 
L 190.200336 144.453506 
z
" clip-path="url(#pc29a0b6c60)" style="fill: #b46a3a"/>
   </g>
   <g id="patch_5">
    <path d="M 299.217475 299.452188 
L 366.808102 299.452188 
L 366.808102 72.678683 
L 299.217475 72.678683 
z
" clip-path="url(#pc29a0b6c60)" style="fill: #b63f6a"/>
   </g>
   <g id="patch_6">
    <path d="M 408.234615 299.452188 
L 475.825241 299.452188 
L 475.825241 273.648186 
L 408.234615 273.648186 
z
" clip-path="url(#pc29a0b6c60)" style="fill: #3a66b7"/>
   </g>
   <g id="patch_7">
    <path d="M 61.451094 299.452188 
L 61.451094 34.127188 
" style="fill: none; stroke: #6b7280; stroke-width: 0.8; stroke-linejoin: miter; stroke-linecap: square"/>
   </g>
   <g id="patch_8">
    <path d="M 61.451094 299.452188 
L 495.557344 299.452188 
" style="fill: none; stroke: #6b7280; stroke-width: 0.8; stroke-linejoin: miter; stroke-linecap: square"/>
   </g>
   <g id="text_16">
    <g id="patch_9">
     <path d="M 104.853509 246.192634 
L 125.103509 246.192634 
Q 126.723509 246.192634 126.723509 244.572634 
L 126.723509 236.398103 
Q 126.723509 234.778103 125.103509 234.778103 
L 104.853509 234.778103 
Q 103.233509 234.778103 103.233509 236.398103 
L 103.233509 244.572634 
Q 103.233509 246.192634 104.853509 246.192634 
z
" style="fill: #ffffff; opacity: 0.85"/>
    </g>
    <text style="font: 9px 'Times New Roman', 'Times', 'DejaVu Serif', serif; text-anchor: middle" x="114.978509" y="242.647478" transform="rotate(-0 114.978509 242.647478)">3.099</text>
   </g>
   <g id="text_17">
    <g id="patch_10">
     <path d="M 213.870649 140.404168 
L 234.120649 140.404168 
Q 235.740649 140.404168 235.740649 138.784168 
L 235.740649 130.609637 
Q 235.740649 128.989637 234.120649 128.989637 
L 213.870649 128.989637 
Q 212.250649 128.989637 212.250649 130.609637 
L 212.250649 138.784168 
Q 212.250649 140.404168 213.870649 140.404168 
z
" style="fill: #ffffff; opacity: 0.85"/>
    </g>
    <text style="font: 9px 'Times New Roman', 'Times', 'DejaVu Serif', serif; text-anchor: middle" x="223.995649" y="136.859012" transform="rotate(-0 223.995649 136.859012)">9.761</text>
   </g>
   <g id="text_18">
    <g id="patch_11">
     <path d="M 320.637789 68.629346 
L 345.387789 68.629346 
Q 347.007789 68.629346 347.007789 67.009346 
L 347.007789 58.834814 
Q 347.007789 57.214814 345.387789 57.214814 
L 320.637789 57.214814 
Q 319.017789 57.214814 319.017789 58.834814 
L 319.017789 67.009346 
Q 319.017789 68.629346 320.637789 68.629346 
z
" style="fill: #ffffff; opacity: 0.85"/>
    </g>
    <text style="font: 9px 'Times New Roman', 'Times', 'DejaVu Serif', serif; text-anchor: middle" x="333.012789" y="65.084189" transform="rotate(-0 333.012789 65.084189)">14.281</text>
   </g>
   <g id="text_19">
    <g id="patch_12">
     <path d="M 431.904928 269.598848 
L 452.154928 269.598848 
Q 453.774928 269.598848 453.774928 267.978848 
L 453.774928 259.804317 
Q 453.774928 258.184317 452.154928 258.184317 
L 431.904928 258.184317 
Q 430.284928 258.184317 430.284928 259.804317 
L 430.284928 267.978848 
Q 430.284928 269.598848 431.904928 269.598848 
z
" style="fill: #ffffff; opacity: 0.85"/>
    </g>
    <text style="font: 9px 'Times New Roman', 'Times', 'DejaVu Serif', serif; text-anchor: middle" x="442.029928" y="266.053692" transform="rotate(-0 442.029928 266.053692)">1.625</text>
   </g>
   <g id="text_20">
    <text style="font: 700 15px 'Times New Roman', 'Times', 'DejaVu Serif', serif; text-anchor: middle" x="278.504219" y="23.127188" transform="rotate(-0 278.504219 23.127188)">Jumlah Akun Unik per Brand</text>
   </g>
  </g>
 </g>
 <defs>
  <clipPath id="pc29a0b6c60">
   <rect x="61.451094" y="34.127188" width="434.10625" height="265.325"/>
  </clipPath>
 </defs>
</svg>
